<svg version="1.1" id="Layer_1" xmlns="http://www.w3.org/2000/svg" xmlns:xlink="http://www.w3.org/1999/xlink" x="0px" y="0px"
     width="100%" viewBox="170 120 628 732" enable-background="new 0 0 1024 1024" xml:space="preserve">
<path fill="#5754BD" opacity="1.000000" stroke="none" 
    d="
M394.329224,222.718719 
    C418.098694,232.635101 440.100586,245.080322 461.111237,259.147827 
    C472.648071,266.872253 483.542603,275.670288 494.094330,284.721497 
    C506.145721,295.059052 518.088379,305.654602 528.977844,317.178009 
    C539.449402,328.259247 549.039246,340.285278 558.056152,352.599457 
    C567.793823,365.898071 577.246338,379.546875 585.302795,393.896606 
    C593.895264,409.201019 600.827576,425.448944 608.239197,441.398987 
    C611.048218,447.443939 613.064636,453.852295 615.648682,460.008392 
    C617.260132,463.847260 619.363281,461.801697 620.711670,459.846375 
    C626.554016,451.374298 632.100220,442.697235 637.983887,434.254883 
    C646.481506,422.061829 655.014282,409.886658 663.836060,397.928131 
    C672.572205,386.085846 681.574402,374.434387 690.673462,362.867310 
    C696.426941,355.553192 702.571899,348.547089 709.860413,341.667175 
    C709.219666,346.523346 708.973145,351.471680 707.863403,356.218201 
    C704.681335,369.827423 701.026855,383.325714 697.787842,396.922333 
    C694.143433,412.220795 688.044373,426.089417 677.588013,438.198517 
    C671.560608,445.178619 667.062317,453.493561 661.995483,461.285553 
    C652.199463,476.350433 642.288818,491.346588 632.806396,506.607758 
    C625.566956,518.258911 618.881287,530.255493 612.009460,542.133301 
    C604.039185,555.909546 596.287415,569.814575 588.162170,583.498291 
    C578.386108,599.962158 568.739746,616.530457 558.215088,632.512085 
    C551.939026,642.042114 544.381287,650.791382 536.856750,659.418091 
    C529.346619,668.028198 521.827576,676.845886 513.114136,684.141296 
    C499.589081,695.465332 485.075928,705.613159 470.930145,716.190735 
    C457.663605,726.110840 442.570587,732.806458 427.290710,738.540771 
    C411.625061,744.419861 395.323273,748.817932 379.021118,752.690552 
    C371.594269,754.454712 363.102905,754.027649 358.163818,746.177307 
    C355.993195,742.727173 354.397949,738.639771 353.631226,734.633179 
    C351.335388,722.635742 349.118469,710.587708 347.737122,698.460693 
    C346.323395,686.049500 344.981506,673.492188 345.365784,661.053101 
    C345.746582,648.726685 348.503998,636.488770 349.885101,624.174561 
    C351.688538,608.095093 358.131500,593.682373 365.232941,579.455261 
    C373.610718,562.671204 385.494324,548.539917 399.467407,536.341614 
    C411.187744,526.109985 424.231689,517.533264 438.172394,510.451843 
    C439.418915,509.818634 440.543579,508.945404 442.866180,507.447601 
    C439.640442,506.022003 437.591064,504.852417 435.389526,504.183960 
    C411.753418,497.007324 390.239197,485.410095 370.285400,471.218658 
    C359.200714,463.335083 348.874969,454.046082 339.520996,444.148773 
    C326.347992,430.210510 314.614655,415.008270 304.730530,398.396667 
    C293.974213,380.319153 284.875977,361.540497 278.605530,341.483643 
    C274.290314,327.680756 270.157532,313.783447 266.851868,299.714813 
    C264.436676,289.436127 263.936584,278.720215 261.806335,268.358856 
    C258.336029,251.479324 259.354462,234.432800 259.571564,217.477264 
    C259.694519,207.874573 262.400879,198.061218 273.178436,194.570724 
    C278.014801,193.004379 283.675568,192.766449 288.760925,193.441757 
    C299.039551,194.806702 309.296143,196.748993 319.352417,199.284012 
    C335.938904,203.465195 352.440277,208.036621 368.816376,212.977798 
    C377.389465,215.564560 385.619568,219.288071 394.329224,222.718719 
M413.493469,570.998962 
    C401.064697,585.038147 391.923279,600.743408 386.563019,618.936462 
    C382.348694,633.240051 380.327393,647.681152 379.960693,662.414673 
    C379.767853,670.163818 380.447388,677.950500 381.022614,685.698730 
    C381.616821,693.703247 382.317139,701.716064 383.432068,709.660583 
    C384.308533,715.906006 386.075500,716.789062 391.998016,714.647339 
    C401.503906,711.209839 411.165649,708.088318 420.367767,703.956421 
    C430.675201,699.328003 441.011871,694.450256 450.484131,688.356934 
    C461.898956,681.014038 472.565857,672.467896 483.288727,664.099487 
    C498.243988,652.427917 511.034424,638.436584 522.240173,623.317139 
    C532.818970,609.043579 542.155884,593.775208 551.168823,578.433105 
    C564.382629,555.940186 576.684387,532.913025 589.700928,510.301300 
    C592.432190,505.556671 591.840637,501.635803 590.535522,496.711517 
    C585.118958,476.274567 578.096497,456.442566 568.880066,437.453369 
    C562.516846,424.342834 555.919373,411.279419 548.391602,398.820251 
    C541.559875,387.513000 533.636902,376.816895 525.624329,366.285492 
    C518.284973,356.638885 510.680176,347.093384 502.284027,338.378448 
    C492.899078,328.637207 482.664764,319.683228 472.473358,310.759766 
    C464.452087,303.736481 456.323761,296.713196 447.555267,290.691345 
    C430.267212,278.818573 412.534821,267.560486 393.253174,259.083099 
    C380.969208,253.682297 368.846436,247.624451 356.094147,243.648483 
    C337.779510,237.938309 318.984497,233.745758 300.336060,229.142395 
    C294.150848,227.615570 294.066925,227.949814 294.055786,234.226562 
    C294.030640,248.370132 294.669312,262.425598 297.681702,276.341980 
    C299.678986,285.569000 299.906647,295.270172 302.669373,304.221130 
    C308.133209,321.923065 313.884308,339.648804 321.203064,356.638245 
    C331.130432,379.683105 345.166931,400.480469 362.828705,418.334717 
    C373.671143,429.295288 385.473663,439.583252 398.050751,448.466187 
    C408.787811,456.049500 421.056671,461.587799 432.981903,467.338104 
    C454.923706,477.918335 478.486084,483.295105 502.352081,487.226990 
    C513.169739,489.009186 517.683716,491.923981 519.868958,502.482025 
    C521.852966,512.067688 516.186523,520.990845 506.092041,523.125000 
    C490.241608,526.476135 474.782471,531.063721 460.041473,537.857910 
    C442.666504,545.866089 426.945190,556.231262 413.493469,570.998962 
z"/>
</svg>
